<svg xmlns="http://www.w3.org/2000/svg" width="88" height="88" fill="none"><g filter="url(#a)"><path fill="#D638E1" d="M40.27 9.852c.073-.898 1.387-.898 1.46 0l1.7 20.575a10 10 0 0 0 9.143 9.143l20.575 1.7c.898.073.898 1.387 0 1.46l-20.575 1.7a10 10 0 0 0-9.143 9.143l-1.7 20.575c-.073.898-1.387.898-1.46 0l-1.7-20.575a10 10 0 0 0-9.143-9.143l-20.575-1.7c-.898-.073-.898-1.387 0-1.46l20.575-1.7a10 10 0 0 0 9.143-9.143l1.7-20.575Z"/><path stroke="#C3D8AC" stroke-width="1.5" d="M40.27 9.852c.073-.898 1.387-.898 1.46 0l1.7 20.575a10 10 0 0 0 9.143 9.143l20.575 1.7c.898.073.898 1.387 0 1.46l-20.575 1.7a10 10 0 0 0-9.143 9.143l-1.7 20.575c-.073.898-1.387.898-1.46 0l-1.7-20.575a10 10 0 0 0-9.143-9.143l-20.575-1.7c-.898-.073-.898-1.387 0-1.46l20.575-1.7a10 10 0 0 0 9.143-9.143l1.7-20.575Z"/></g><defs><filter id="a" width="87.143" height="87.141" x=".429" y=".43" color-interpolation-filters="sRGB" filterUnits="userSpaceOnUse"><feFlood flood-opacity="0" result="BackgroundImageFix"/><feColorMatrix in="SourceAlpha" result="hardAlpha" values="0 0 0 0 0 0 0 0 0 0 0 0 0 0 0 0 0 0 127 0"/><feOffset dx="3" dy="2"/><feGaussianBlur stdDeviation="5"/><feComposite in2="hardAlpha" operator="out"/><feColorMatrix values="0 0 0 0 0.839216 0 0 0 0 0.219608 0 0 0 0 0.882353 0 0 0 0.25 0"/><feBlend in2="BackgroundImageFix" result="effect1_dropShadow_1450_8185"/><feBlend in="SourceGraphic" in2="effect1_dropShadow_1450_8185" result="shape"/></filter></defs></svg>